<svg width="18" height="18" viewBox="0 0 18 18" fill="none" xmlns="http://www.w3.org/2000/svg">
<g clip-path="url(#clip0_96_389)">
<path d="M1.4157 3.58402C2.57184 1.90111 4.66831 1.74273 6.23992 2.82115C7.06177 1.10141 8.93439 0.210715 10.7992 1.0697C12.6641 1.92869 13.427 4.0345 12.6555 5.86522C12.4966 6.24223 12.239 6.73757 11.93 7.28652C10.9687 6.32514 9.3097 5.97639 8.6004 5.92218C6.59289 6.29466 5.29485 8.10585 5.56624 10.0739L5.68407 10.7261C4.3459 10.0121 2.92457 9.20966 2.20591 8.66518C0.622406 7.46548 0.259557 5.26692 1.4157 3.58402Z" fill="#F04438"/>
<path fill-rule="evenodd" clip-rule="evenodd" d="M12.5511 8.79399C12.2023 6.92014 10.6079 5.5497 8.6004 5.92218C6.59289 6.29466 5.29485 8.10585 5.56624 10.0739C5.78428 11.655 6.98783 15.3648 7.45257 16.7622C7.51599 16.9529 7.5477 17.0482 7.61048 17.1147C7.66517 17.1726 7.73789 17.2146 7.8154 17.233C7.90437 17.2542 8.00279 17.2339 8.19964 17.1935C9.64218 16.8973 13.4567 16.0847 14.9351 15.483C16.7751 14.734 17.7247 12.7055 17.0135 10.7795C16.3022 8.85341 14.3482 8.15909 12.5511 8.79399Z" fill="#F04438"/>
<path d="M11.93 7.28652C12.239 6.73757 12.4966 6.24223 12.6555 5.86522C13.427 4.0345 12.6641 1.92869 10.7992 1.0697C8.93439 0.210715 7.06176 1.10141 6.23992 2.82115C4.66831 1.74273 2.57184 1.90111 1.4157 3.58402C0.259557 5.26692 0.622406 7.46548 2.20591 8.66518C2.92457 9.20966 4.3459 10.0121 5.68407 10.7261M12.5511 8.79399C12.2023 6.92014 10.6079 5.5497 8.6004 5.92218C6.59289 6.29466 5.29485 8.10585 5.56624 10.0739C5.78428 11.655 6.98783 15.3648 7.45257 16.7622C7.51599 16.9529 7.5477 17.0482 7.61048 17.1147C7.66517 17.1726 7.73789 17.2146 7.8154 17.233C7.90437 17.2542 8.00279 17.2339 8.19964 17.1935C9.64218 16.8973 13.4567 16.0847 14.9351 15.483C16.7751 14.734 17.7247 12.7055 17.0135 10.7795C16.3022 8.85341 14.3482 8.15909 12.5511 8.79399Z" stroke="white" stroke-width="0.75" stroke-linecap="round" stroke-linejoin="round"/>
</g>
<defs>
<clipPath id="clip0_96_389">
<rect width="18" height="18" fill="white"/>
</clipPath>
</defs>
</svg>
