<svg width="18" height="18" viewBox="0 0 18 18" fill="none" xmlns="http://www.w3.org/2000/svg">
<g clip-path="url(#clip0_96_774)">
<path fill-rule="evenodd" clip-rule="evenodd" d="M13.5 9C13.5 11.4853 11.4853 13.5 9 13.5C6.51472 13.5 4.5 11.4853 4.5 9C4.5 6.51472 6.51472 4.5 9 4.5C11.4853 4.5 13.5 6.51472 13.5 9ZM9 7.5C9.82843 7.5 10.5 8.17157 10.5 9C10.5 9.82843 9.82843 10.5 9 10.5C8.17157 10.5 7.5 9.82843 7.5 9C7.5 8.17157 8.17157 7.5 9 7.5Z" fill="#F79009"/>
<path d="M8.25 13.2439C8.25 12.8297 7.91421 12.4939 7.5 12.4939C7.08579 12.4939 6.75 12.8297 6.75 13.2439H8.25ZM11.25 13.2439C11.25 12.8297 10.9142 12.4939 10.5 12.4939C10.0858 12.4939 9.75 12.8297 9.75 13.2439H11.25ZM9.75 1.5C9.75 1.08579 9.41421 0.75 9 0.75C8.58579 0.75 8.25 1.08579 8.25 1.5H9.75ZM8.25 2.25C8.25 2.66421 8.58579 3 9 3C9.41421 3 9.75 2.66421 9.75 2.25H8.25ZM2.25 9.75C2.66421 9.75 3 9.41421 3 9C3 8.58579 2.66421 8.25 2.25 8.25V9.75ZM1.5 8.25C1.08579 8.25 0.75 8.58579 0.75 9C0.75 9.41421 1.08579 9.75 1.5 9.75V8.25ZM3.59467 4.65533C3.88756 4.94822 4.36244 4.94822 4.65533 4.65533C4.94822 4.36244 4.94822 3.88756 4.65533 3.59467L3.59467 4.65533ZM4.20526 3.1446C3.91236 2.8517 3.43749 2.8517 3.1446 3.1446C2.8517 3.43749 2.8517 3.91236 3.1446 4.20526L4.20526 3.1446ZM13.3447 3.5946C13.0518 3.88746 13.0517 4.36233 13.3446 4.65526C13.6375 4.94819 14.1123 4.94825 14.4053 4.6554L13.3447 3.5946ZM14.8554 4.20532C15.1484 3.91247 15.1484 3.43759 14.8556 3.14466C14.5627 2.85173 14.0879 2.85167 13.7949 3.14453L14.8554 4.20532ZM16.5 9.75C16.9142 9.75 17.25 9.41421 17.25 9C17.25 8.58579 16.9142 8.25 16.5 8.25V9.75ZM15.75 8.25C15.3358 8.25 15 8.58579 15 9C15 9.41421 15.3358 9.75 15.75 9.75V8.25ZM9 14.25C11.8995 14.25 14.25 11.8995 14.25 9H12.75C12.75 11.0711 11.0711 12.75 9 12.75V14.25ZM3.75 9C3.75 11.8995 6.1005 14.25 9 14.25V12.75C6.92893 12.75 5.25 11.0711 5.25 9H3.75ZM9 3.75C6.1005 3.75 3.75 6.1005 3.75 9H5.25C5.25 6.92893 6.92893 5.25 9 5.25V3.75ZM14.25 9C14.25 6.1005 11.8995 3.75 9 3.75V5.25C11.0711 5.25 12.75 6.92893 12.75 9H14.25ZM11.25 9C11.25 7.75736 10.2426 6.75 9 6.75V8.25C9.41421 8.25 9.75 8.58579 9.75 9H11.25ZM9 11.25C10.2426 11.25 11.25 10.2426 11.25 9H9.75C9.75 9.41421 9.41421 9.75 9 9.75V11.25ZM6.75 9C6.75 10.2426 7.75736 11.25 9 11.25V9.75C8.58579 9.75 8.25 9.41421 8.25 9H6.75ZM9 6.75C7.75736 6.75 6.75 7.75736 6.75 9H8.25C8.25 8.58579 8.58579 8.25 9 8.25V6.75ZM8.25 15V13.2439H6.75V15H8.25ZM9.75 13.2439V15H11.25V13.2439H9.75ZM9 17.25C10.2426 17.25 11.25 16.2426 11.25 15H9.75C9.75 15.4142 9.41421 15.75 9 15.75V17.25ZM6.75 15C6.75 16.2426 7.75736 17.25 9 17.25V15.75C8.58579 15.75 8.25 15.4142 8.25 15H6.75ZM8.25 1.5V2.25H9.75V1.5H8.25ZM2.25 8.25H1.5V9.75H2.25V8.25ZM4.65533 3.59467L4.20526 3.1446L3.1446 4.20526L3.59467 4.65533L4.65533 3.59467ZM14.4053 4.6554L14.8554 4.20532L13.7949 3.14453L13.3447 3.5946L14.4053 4.6554ZM16.5 8.25H15.75V9.75H16.5V8.25Z" fill="#F79009"/>
</g>
<defs>
<clipPath id="clip0_96_774">
<rect width="18" height="18" fill="white"/>
</clipPath>
</defs>
</svg>
