<svg width="126" height="120" viewBox="0 0 126 120" fill="none" xmlns="http://www.w3.org/2000/svg">
<rect width="126" height="120" fill="#F5F5F5"/>
<rect width="360" height="800" transform="translate(-117 -324)" fill="#F0F4FF"/>
<path d="M63 0L71.4035 34.2322C72.6947 39.4919 73.3402 42.1218 74.7135 44.2431C75.9279 46.1189 77.546 47.6997 79.4497 48.87C81.6025 50.1934 84.2467 50.7775 89.5351 51.9456L126 60L89.5351 68.0544C84.2467 69.2225 81.6025 69.8066 79.4497 71.13C77.546 72.3003 75.9279 73.8811 74.7135 75.7569C73.3402 77.8783 72.6947 80.5081 71.4035 85.7678L63 120L54.5965 85.7678C53.3054 80.5081 52.6598 77.8783 51.2865 75.7569C50.0721 73.8811 48.454 72.3003 46.5503 71.13C44.3975 69.8066 41.7533 69.2225 36.4649 68.0544L0 60L36.4649 51.9456C41.7533 50.7775 44.3975 50.1934 46.5503 48.87C48.454 47.6997 50.0721 46.1189 51.2865 44.2431C52.6598 42.1218 53.3054 39.4919 54.5965 34.2322L63 0Z" fill="black"/>
</svg>
