<svg width="21" height="20" viewBox="0 0 21 20" fill="none" xmlns="http://www.w3.org/2000/svg">
<path d="M17.9999 17.5H11.3333M2.58325 17.9167L7.20764 16.138C7.50343 16.0243 7.65132 15.9674 7.78968 15.8931C7.91259 15.8272 8.02975 15.751 8.13995 15.6655C8.26402 15.5692 8.37606 15.4572 8.60015 15.2331L17.9999 5.83332C18.9204 4.91285 18.9204 3.42046 17.9999 2.49999C17.0795 1.57951 15.5871 1.57951 14.6666 2.49999L5.26682 11.8998C5.04273 12.1238 4.93069 12.2359 4.83441 12.36C4.7489 12.4702 4.67275 12.5873 4.60678 12.7102C4.53251 12.8486 4.47563 12.9965 4.36186 13.2923L2.58325 17.9167ZM2.58325 17.9167L4.29835 13.4575C4.42108 13.1384 4.48245 12.9788 4.5877 12.9057C4.67969 12.8419 4.7935 12.8177 4.9035 12.8387C5.02936 12.8627 5.15024 12.9836 5.39199 13.2254L7.27456 15.1079C7.51631 15.3497 7.63719 15.4706 7.66122 15.5964C7.68223 15.7064 7.65807 15.8202 7.59421 15.9122C7.52112 16.0175 7.36158 16.0788 7.04248 16.2016L2.58325 17.9167Z" stroke="#4166C6" stroke-width="1.5" stroke-linecap="round" stroke-linejoin="round"/>
</svg>
